##     ## ##    ## ####  #######  ##     ## ######## 
##     ## ###   ##  ##  ##     ## ##     ## ##       
##     ## ####  ##  ##  ##     ## ##     ## ##       
##     ## ## ## ##  ##  ##     ## ##     ## ######   
##     ## ##  ####  ##  ##  ## ## ##     ## ##       
##     ## ##   ###  ##  ##    ##  ##     ## ##       
 #######  ##    ## ####  ##### ##  #######  ######## 


#############Credits To DiNGiE & Unique#############


General
Complete name : Beverly Hills Chihuahua 3 2012 BRRip x264 AAC-UNiQUE.mp4
Format : MPEG-4
Format profile : Base Media
Codec ID : isom
File size : 1.41 GiB
Duration : 1h 29mn
Overall bit rate mode : Variable
Overall bit rate : 2 268 Kbps
Encoded date : UTC 2012-09-25 13:52:42

Video
ID : 1
Format : AVC
Format/Info : Advanced Video Codec
Format profile : High@L4.1
Format settings, CABAC : Yes
Format settings, ReFrames : 3 frames
Codec ID : avc1
Codec ID/Info : Advanced Video Coding
Duration : 1h 29mn
Bit rate mode : Variable
Bit rate : 1 931 Kbps
Maximum bit rate : 40.0 Mbps
Width : 720 pixels
Height : 400 pixels
Display aspect ratio : 16:9
Frame rate mode : Constant
Frame rate : 23.976 fps
Color space : YUV
Chroma subsampling : 4:2:0
Bit depth : 8 bits
Scan type : Progressive
Bits/(Pixel*Frame) : 0.280
Stream size : 1.20 GiB (85%)
Writing library : x264 core 128 r2216 198a7ea

Audio
ID : 2
Format : AAC
Format/Info : Advanced Audio Codec
Format profile : LC
Codec ID : 40
Duration : 1h 28mn
Bit rate mode : Variable
Bit rate : 335 Kbps
Maximum bit rate : 418 Kbps
Channel(s) : 6 channels
Channel positions : Front: L C R, Side: L R, LFE
Sampling rate : 48.0 KHz
Compression mode : Lossy
Stream size : 213 MiB (15%)
Language : English
Encoded date : UTC 2012-09-25 13:53:16

Source : 720p.BluRay.x264-PFa - Thanks! 

Storyline
When Papi & co move into a luxurious hotel, his youngest pup Rosa feels neglected and he must show her how special she is.

iMDB: 
http://www.imdb.com/title/tt2224075

Screen Shots:
    
http://i.imgur.com/HkgXY.png
 
http://i.imgur.com/cV9Tl.png
 
http://i.imgur.com/EGTnG.png
 
http://i.imgur.com/AKQMs.png
 
http://i.imgur.com/PmpfU.png
 
http://i.imgur.com/uKhBX.png


#############Credits To DiNGiE & Unique#############


##     ## ##    ## ####  #######  ##     ## ######## 
##     ## ###   ##  ##  ##     ## ##     ## ##       
##     ## ####  ##  ##  ##     ## ##     ## ##       
##     ## ## ## ##  ##  ##     ## ##     ## ######   
##     ## ##  ####  ##  ##  ## ## ##     ## ##       
##     ## ##   ###  ##  ##    ##  ##     ## ##       
 #######  ##    ## ####  ##### ##  #######  ######## 